<svg width="24" height="24" viewBox="0 0 24 24" fill="none" xmlns="http://www.w3.org/2000/svg">
<path d="M8.56759 11.2145C10.3777 11.2145 11.8451 9.74711 11.8451 7.93697C11.8451 6.12683 10.3777 4.65942 8.56759 4.65942C6.75745 4.65942 5.29004 6.12683 5.29004 7.93697C5.29004 9.74711 6.75745 11.2145 8.56759 11.2145Z" fill="#ADEC76"/>
<path d="M14.1257 19.3422C16.5305 19.3422 18.4799 17.3928 18.4799 14.988C18.4799 12.5832 16.5305 10.6338 14.1257 10.6338C11.7209 10.6338 9.77148 12.5832 9.77148 14.988C9.77148 17.3928 11.7209 19.3422 14.1257 19.3422Z" fill="#ADEC76"/>
<path d="M20.4641 14.6832L23.09 15.5261C22.2821 18.0429 20.7176 20.1881 18.5661 21.7302C16.415 23.2718 13.8919 24.0559 11.2741 23.9975C6.11745 23.8831 1.58641 20.4781 -0.000976562 15.5252L2.62537 14.6837C3.85372 18.5168 7.35433 21.1517 11.3356 21.2406C15.4439 21.3321 19.1953 18.6353 20.4645 14.6832H20.4641Z" fill="#ADEC76"/>
<path d="M2.62492 9.31794L-0.000976562 8.4751C0.806855 5.95826 2.37135 3.81302 4.52288 2.27096C6.67395 0.729346 9.19708 -0.0546988 11.8149 0.0036445C16.9716 0.118087 21.5026 3.5231 23.09 8.476L20.4636 9.31749C19.2353 5.48433 15.7347 2.84945 11.7534 2.76059C7.64515 2.66904 3.89367 5.36585 2.62447 9.31794H2.62492Z" fill="#ADEC76"/>
</svg>
